<svg width="131" height="443" viewBox="0 0 131 443" fill="none" xmlns="http://www.w3.org/2000/svg">
<circle cx="123.999" cy="7" r="7" transform="rotate(90 123.999 7)" fill="#9FBD84" fill-opacity="0.2"/>
<circle cx="123.999" cy="46" r="7" transform="rotate(90 123.999 46)" fill="#9FBD84" fill-opacity="0.2"/>
<circle cx="123.999" cy="85" r="7" transform="rotate(90 123.999 85)" fill="#9FBD84" fill-opacity="0.2"/>
<circle cx="123.999" cy="124" r="7" transform="rotate(90 123.999 124)" fill="#9FBD84" fill-opacity="0.2"/>
<circle cx="123.999" cy="163" r="7" transform="rotate(90 123.999 163)" fill="#9FBD84" fill-opacity="0.2"/>
<circle cx="123.999" cy="202" r="7" transform="rotate(90 123.999 202)" fill="#9FBD84" fill-opacity="0.2"/>
<circle cx="123.999" cy="241" r="7" transform="rotate(90 123.999 241)" fill="#9FBD84" fill-opacity="0.2"/>
<circle cx="84.999" cy="7" r="7" transform="rotate(90 84.999 7)" fill="#9FBD84" fill-opacity="0.2"/>
<circle cx="84.999" cy="46" r="7" transform="rotate(90 84.999 46)" fill="#9FBD84" fill-opacity="0.2"/>
<circle cx="84.999" cy="85" r="7" transform="rotate(90 84.999 85)" fill="#9FBD84" fill-opacity="0.2"/>
<circle cx="84.999" cy="124" r="7" transform="rotate(90 84.999 124)" fill="#9FBD84" fill-opacity="0.2"/>
<circle cx="84.999" cy="163" r="7" transform="rotate(90 84.999 163)" fill="#9FBD84" fill-opacity="0.2"/>
<circle cx="84.999" cy="202" r="7" transform="rotate(90 84.999 202)" fill="#9FBD84" fill-opacity="0.2"/>
<circle cx="84.999" cy="241" r="7" transform="rotate(90 84.999 241)" fill="#9FBD84" fill-opacity="0.2"/>
<circle cx="45.999" cy="7" r="7" transform="rotate(90 45.999 7)" fill="#9FBD84" fill-opacity="0.2"/>
<circle cx="45.999" cy="46" r="7" transform="rotate(90 45.999 46)" fill="#9FBD84" fill-opacity="0.2"/>
<circle cx="45.999" cy="85" r="7" transform="rotate(90 45.999 85)" fill="#9FBD84" fill-opacity="0.2"/>
<circle cx="45.999" cy="124" r="7" transform="rotate(90 45.999 124)" fill="#9FBD84" fill-opacity="0.2"/>
<circle cx="45.999" cy="163" r="7" transform="rotate(90 45.999 163)" fill="#9FBD84" fill-opacity="0.2"/>
<circle cx="45.999" cy="202" r="7" transform="rotate(90 45.999 202)" fill="#9FBD84" fill-opacity="0.2"/>
<circle cx="45.999" cy="241" r="7" transform="rotate(90 45.999 241)" fill="#9FBD84" fill-opacity="0.2"/>
<circle cx="6.99902" cy="7" r="7" transform="rotate(90 6.99902 7)" fill="#9FBD84" fill-opacity="0.2"/>
<circle cx="6.99902" cy="46" r="7" transform="rotate(90 6.99902 46)" fill="#9FBD84" fill-opacity="0.2"/>
<circle cx="6.99902" cy="85" r="7" transform="rotate(90 6.99902 85)" fill="#9FBD84" fill-opacity="0.2"/>
<circle cx="6.99902" cy="124" r="7" transform="rotate(90 6.99902 124)" fill="#9FBD84" fill-opacity="0.2"/>
<circle cx="6.99902" cy="163" r="7" transform="rotate(90 6.99902 163)" fill="#9FBD84" fill-opacity="0.2"/>
<circle cx="6.99902" cy="202" r="7" transform="rotate(90 6.99902 202)" fill="#9FBD84" fill-opacity="0.2"/>
<circle cx="6.99902" cy="241" r="7" transform="rotate(90 6.99902 241)" fill="#9FBD84" fill-opacity="0.2"/>
<circle cx="123.999" cy="280" r="7" transform="rotate(90 123.999 280)" fill="#9FBD84" fill-opacity="0.2"/>
<circle cx="123.999" cy="319" r="7" transform="rotate(90 123.999 319)" fill="#9FBD84" fill-opacity="0.2"/>
<circle cx="123.999" cy="358" r="7" transform="rotate(90 123.999 358)" fill="#9FBD84" fill-opacity="0.2"/>
<circle cx="123.999" cy="397" r="7" transform="rotate(90 123.999 397)" fill="#9FBD84" fill-opacity="0.2"/>
<circle cx="123.999" cy="436" r="7" transform="rotate(90 123.999 436)" fill="#9FBD84" fill-opacity="0.2"/>
<circle cx="84.999" cy="280" r="7" transform="rotate(90 84.999 280)" fill="#9FBD84" fill-opacity="0.2"/>
<circle cx="84.999" cy="319" r="7" transform="rotate(90 84.999 319)" fill="#9FBD84" fill-opacity="0.2"/>
<circle cx="84.999" cy="358" r="7" transform="rotate(90 84.999 358)" fill="#9FBD84" fill-opacity="0.2"/>
<circle cx="84.999" cy="397" r="7" transform="rotate(90 84.999 397)" fill="#9FBD84" fill-opacity="0.2"/>
<circle cx="84.999" cy="436" r="7" transform="rotate(90 84.999 436)" fill="#9FBD84" fill-opacity="0.2"/>
<circle cx="45.999" cy="280" r="7" transform="rotate(90 45.999 280)" fill="#9FBD84" fill-opacity="0.2"/>
<circle cx="45.999" cy="319" r="7" transform="rotate(90 45.999 319)" fill="#9FBD84" fill-opacity="0.2"/>
<circle cx="45.999" cy="358" r="7" transform="rotate(90 45.999 358)" fill="#9FBD84" fill-opacity="0.2"/>
<circle cx="45.999" cy="397" r="7" transform="rotate(90 45.999 397)" fill="#9FBD84" fill-opacity="0.2"/>
<circle cx="45.999" cy="436" r="7" transform="rotate(90 45.999 436)" fill="#9FBD84" fill-opacity="0.2"/>
<circle cx="6.99902" cy="280" r="7" transform="rotate(90 6.99902 280)" fill="#9FBD84" fill-opacity="0.2"/>
<circle cx="6.99902" cy="319" r="7" transform="rotate(90 6.99902 319)" fill="#9FBD84" fill-opacity="0.2"/>
<circle cx="6.99902" cy="358" r="7" transform="rotate(90 6.99902 358)" fill="#9FBD84" fill-opacity="0.2"/>
<circle cx="6.99902" cy="397" r="7" transform="rotate(90 6.99902 397)" fill="#9FBD84" fill-opacity="0.2"/>
<circle cx="6.99902" cy="436" r="7" transform="rotate(90 6.99902 436)" fill="#9FBD84" fill-opacity="0.2"/>
</svg>
